<?xml version="1.0" encoding="UTF-8"?>
<!DOCTYPE svg PUBLIC "-//W3C//DTD SVG 1.1//EN" "http://www.w3.org/Graphics/SVG/1.1/DTD/svg11.dtd">
<!-- Creator: CorelDRAW X5 -->
<svg xmlns="http://www.w3.org/2000/svg" xml:space="preserve" width="2048px" height="2048px" style="shape-rendering:geometricPrecision; text-rendering:geometricPrecision; image-rendering:optimizeQuality; fill-rule:evenodd; clip-rule:evenodd"
viewBox="0 0 2048 2048"
 xmlns:xlink="http://www.w3.org/1999/xlink">
 <defs>
  <style type="text/css">
   <![CDATA[
    .fil2 {fill:none}
    .fil1 {fill:#414141}
    .fil0 {fill:#414141;fill-rule:nonzero}
   ]]>
  </style>
 </defs>
 <g id="Layer_x0020_1">
  <metadata id="CorelCorpID_0Corel-Layer"/>
  <g id="_424315312">
   <path class="fil0" d="M570 1370c-54,-94 -97,-199 -127,-301 -31,-107 -48,-211 -48,-297 0,-169 29,-280 86,-359 58,-80 141,-124 250,-159 9,-3 19,-1 27,4 82,47 171,75 266,75 95,0 185,-29 267,-76 8,-5 17,-5 26,-3l0 0c109,35 192,79 250,159 57,79 86,190 86,359 0,86 -17,190 -48,297 -30,102 -73,206 -127,301 -9,15 -61,96 -71,110 -53,72 -114,133 -181,175 -62,39 -130,62 -201,62 -70,0 -137,-22 -198,-59 -66,-40 -126,-99 -179,-169 -11,-14 -68,-102 -77,-118zm454 -119c-57,0 -104,47 -104,104 0,57 47,104 104,104 57,0 104,-47 104,-104 0,-57 -47,-104 -104,-104zm-301 -183c29,0 70,-53 85,-74 30,-43 70,-122 70,-174 0,-71 -69,-131 -130,-157 -32,-14 -78,-25 -112,-12 -30,12 -36,44 -36,73 0,81 51,256 101,323 3,5 15,19 22,21zm602 0c6,-1 18,-16 22,-21 50,-67 101,-242 101,-323 0,-29 -6,-61 -36,-73 -34,-13 -80,-1 -112,12 -61,26 -130,86 -130,157 0,52 40,131 70,174 15,21 56,74 85,74z"/>
   <path class="fil0" d="M579 1527l-76 -101c-11,-14 -8,-34 6,-45l152 -115c14,-11 34,-8 45,6l76 101c11,14 8,34 -6,45l-152 115c-14,11 -34,8 -45,-6z"/>
   <path class="fil0" d="M333 1662c-49,-65 -81,-145 -92,-226 -2,-12 2,-24 12,-32l167 -127c14,-11 34,-8 45,6l253 334c11,14 8,34 -6,45l-167 126c-8,6 -19,9 -29,6 -73,-22 -136,-70 -183,-133z"/>
   <path class="fil0" d="M1546 1426l-76 101c-11,14 -31,17 -45,6l-152 -115c-14,-11 -17,-31 -6,-45l76 -101c11,-14 31,-17 45,-6l152 115c14,11 17,31 6,45z"/>
   <path class="fil0" d="M1807 1436c-11,81 -43,161 -92,226 -47,62 -110,111 -183,133 -10,3 -21,1 -29,-6l-167 -126c-14,-11 -17,-31 -6,-45l253 -334c11,-14 31,-17 45,-6l167 127c10,8 14,20 12,32z"/>
   <g>
    <path class="fil0" d="M456 831c0,18 -14,32 -32,32l-112 0c-18,0 -32,-14 -32,-32l0 -169c0,-18 14,-32 32,-32l112 0c18,0 32,14 32,32 0,39 0,130 0,169z"/>
    <path class="fil0" d="M1624 863c-18,0 -32,-14 -32,-32 0,-39 0,-130 0,-169 0,-18 14,-32 32,-32l112 0c18,0 32,14 32,32l0 169c0,18 -14,32 -32,32l-112 0z"/>
   </g>
   <path class="fil1" d="M1058 1321c-9,-9 -21,-14 -34,-14 -13,0 -25,5 -34,14 -9,9 -14,21 -14,34 0,13 5,25 14,34 9,9 21,14 34,14 13,0 25,-5 34,-14 9,-9 14,-21 14,-34 0,-13 -5,-25 -14,-34z"/>
  </g>
 </g>
 <rect class="fil2" width="2048" height="2048"/>
</svg>
